# xmcd
# 
# Track frame offsets:
#     150
#     3318
#     15450
#     29144
#     44732
#     57512
#     72270
#     84190
#     103568
#     114176
#     128480
#     146639
#     165039
#     179649
#     189590
#     216641
#     236787
#     253020
#     272010
#     294006
#     309642
#     321911
# 
# Disc length: 4634
# 
# Revision: 2
# Processed by: cddbd v1.5.2PL0 Copyright (c) Steve Scherf et al.
# Submitted via: fre:ac v1.0.17
# 
DISCID=3b121816
DTITLE=Bottle Rockets - Bottle Rockets live CD 1
DYEAR=2006
DGENRE=Alternative Country
TTITLE0=Intro: Happy Birthday
TTITLE1=Trailer Mama
TTITLE2=I Wanna Come Home
TTITLE3=Alone In Bad Company
TTITLE4=Slo Toms
TTITLE5=Get Down River
TTITLE6=I'll Be Coming Around
TTITLE7=1000 Dollar Car
TTITLE8=Blue Sky
TTITLE9=Nancy Sinatra
TTITLE10=When I Was Dump
TTITLE11=24 Hours A Day
TTITLE12=Waiting On A Train
TTITLE13=Gas Girl
TTITLE14=Cartoon Wisdom
TTITLE15=Sometimes Found
TTITLE16=Gravity Fails
TTITLE17=Kerosene
TTITLE18=Love Like A Truck
TTITLE19=Indianapolis
TTITLE20=Gotta Get Up
TTITLE21=At The Crossroads
EXTD=
EXTT0=
EXTT1=
EXTT2=
EXTT3=
EXTT4=
EXTT5=
EXTT6=
EXTT7=
EXTT8=
EXTT9=
EXTT10=
EXTT11=
EXTT12=
EXTT13=
EXTT14=
EXTT15=
EXTT16=
EXTT17=
EXTT18=
EXTT19=
EXTT20=
EXTT21=
PLAYORDER=
